# Blender 5.1.2
# www.blender.org
mtllib shadowTest.mtl
o Cube
usemtl white
v -15.000000 -0.100000 15.000000
v -15.000000 0.100000 15.000000
v -15.000000 -0.100000 -15.000000
v -15.000000 0.100000 -15.000000
v 15.000000 -0.100000 15.000000
v 15.000000 0.100000 15.000000
v 15.000000 -0.100000 -15.000000
v 15.000000 0.100000 -15.000000
vn -1.0000 -0.0000 -0.0000
vn -0.0000 -0.0000 -1.0000
vn 1.0000 -0.0000 -0.0000
vn -0.0000 -0.0000 1.0000
vn -0.0000 -1.0000 -0.0000
vn -0.0000 1.0000 -0.0000
vt 0.625000 0.000000
vt 0.375000 0.250000
vt 0.375000 0.000000
vt 0.625000 0.250000
vt 0.375000 0.500000
vt 0.625000 0.500000
vt 0.375000 0.750000
vt 0.625000 0.750000
vt 0.375000 1.000000
vt 0.125000 0.750000
vt 0.125000 0.500000
vt 0.875000 0.500000
vt 0.625000 1.000000
vt 0.875000 0.750000
s 0
f 2/1/1 3/2/1 1/3/1
f 4/4/2 7/5/2 3/2/2
f 8/6/3 5/7/3 7/5/3
f 6/8/4 1/9/4 5/7/4
f 7/5/5 1/10/5 3/11/5
f 4/12/6 6/8/6 8/6/6
f 2/1/1 4/4/1 3/2/1
f 4/4/2 8/6/2 7/5/2
f 8/6/3 6/8/3 5/7/3
f 6/8/4 2/13/4 1/9/4
f 7/5/5 5/7/5 1/10/5
f 4/12/6 2/14/6 6/8/6
o Cube.001
usemtl white
v 0.142381 2.087101 1.864537
v 0.450855 3.804860 0.684041
v -0.346943 1.542589 0.944344
v -0.038469 3.260347 -0.236152
v 3.628626 0.736326 0.809987
v 3.937100 2.454084 -0.370508
v 3.139303 0.191814 -0.110205
v 3.447777 1.909572 -1.290701
vn -0.8974 0.3477 0.2715
vn -0.4161 -0.4631 -0.7826
vn 0.8974 -0.3477 -0.2715
vn 0.4161 0.4631 0.7826
vn -0.1464 -0.8153 0.5603
vn 0.1464 0.8153 -0.5603
vt 0.625000 0.000000
vt 0.375000 0.250000
vt 0.375000 0.000000
vt 0.625000 0.250000
vt 0.375000 0.500000
vt 0.625000 0.500000
vt 0.375000 0.750000
vt 0.625000 0.750000
vt 0.375000 1.000000
vt 0.125000 0.750000
vt 0.125000 0.500000
vt 0.875000 0.500000
vt 0.625000 1.000000
vt 0.875000 0.750000
s 0
f 10/15/7 11/16/7 9/17/7
f 12/18/8 15/19/8 11/16/8
f 16/20/9 13/21/9 15/19/9
f 14/22/10 9/23/10 13/21/10
f 15/19/11 9/24/11 11/25/11
f 12/26/12 14/22/12 16/20/12
f 10/15/7 12/18/7 11/16/7
f 12/18/8 16/20/8 15/19/8
f 16/20/9 14/22/9 13/21/9
f 14/22/10 10/27/10 9/23/10
f 15/19/11 13/21/11 9/24/11
f 12/26/12 10/28/12 14/22/12
o Cube.002
usemtl white
v -2.457791 0.775899 -0.787135
v -2.457791 3.666923 -0.787135
v -2.457791 0.775899 -2.994920
v -2.457791 3.666923 -2.994920
v -0.250006 0.775899 -0.787135
v -0.250006 3.666923 -0.787135
v -0.250006 0.775899 -2.994920
v -0.250006 3.666923 -2.994920
vn -1.0000 -0.0000 -0.0000
vn -0.0000 -0.0000 -1.0000
vn 1.0000 -0.0000 -0.0000
vn -0.0000 -0.0000 1.0000
vn -0.0000 -1.0000 -0.0000
vn -0.0000 1.0000 -0.0000
vt 0.625000 0.000000
vt 0.375000 0.250000
vt 0.375000 0.000000
vt 0.625000 0.250000
vt 0.375000 0.500000
vt 0.625000 0.500000
vt 0.375000 0.750000
vt 0.625000 0.750000
vt 0.375000 1.000000
vt 0.125000 0.750000
vt 0.125000 0.500000
vt 0.875000 0.500000
vt 0.625000 1.000000
vt 0.875000 0.750000
s 0
f 18/29/13 19/30/13 17/31/13
f 20/32/14 23/33/14 19/30/14
f 24/34/15 21/35/15 23/33/15
f 22/36/16 17/37/16 21/35/16
f 23/33/17 17/38/17 19/39/17
f 20/40/18 22/36/18 24/34/18
f 18/29/13 20/32/13 19/30/13
f 20/32/14 24/34/14 23/33/14
f 24/34/15 22/36/15 21/35/15
f 22/36/16 18/41/16 17/37/16
f 23/33/17 21/35/17 17/38/17
f 20/40/18 18/42/18 22/36/18
o Icosphere
usemtl white
v -1.539514 1.961241 3.883966
v -0.925386 2.430387 4.330152
v -1.774086 2.430387 4.605916
v -2.298617 2.430391 3.883966
v -1.774086 2.430387 3.162017
v -0.925386 2.430387 3.437781
v -1.304942 3.189502 4.605916
v -2.153642 3.189501 4.330152
v -2.153642 3.189501 3.437781
v -1.304942 3.189502 3.162017
v -0.780411 3.189498 3.883966
v -1.539514 3.658648 3.883966
v -1.737110 2.251905 4.492116
v -1.677391 2.087991 4.308314
v -1.605379 1.988442 4.086682
v -1.367074 1.988442 4.009250
v -1.178541 2.087991 4.146225
v -1.022189 2.251906 4.259820
v -1.088054 2.383639 4.462538
v -1.316416 2.363749 4.570578
v -1.564669 2.383639 4.617403
v -0.849748 2.383640 3.633397
v -0.817566 2.363750 3.883966
v -0.849748 2.383640 4.134536
v -1.367074 1.988442 3.758683
v -1.178541 2.087991 3.621707
v -1.022189 2.251906 3.508112
v -2.178963 2.251909 3.883966
v -1.985703 2.087993 3.883966
v -1.752663 1.988443 3.883966
v -1.950262 2.383639 4.492117
v -2.123583 2.363750 4.308316
v -2.244830 2.383642 4.086682
v -1.737110 2.251905 3.275817
v -1.677391 2.087991 3.459619
v -1.605379 1.988442 3.681251
v -2.244830 2.383642 3.681251
v -2.123583 2.363750 3.459617
v -1.950262 2.383639 3.275815
v -1.564669 2.383639 3.150530
v -1.316416 2.363749 3.197355
v -1.088054 2.383639 3.305395
v -0.727622 3.023096 4.009251
v -0.732348 2.809944 4.146226
v -0.809037 2.596792 4.259821
v -0.809037 2.596792 3.508111
v -0.732348 2.809944 3.621706
v -0.727622 3.023096 3.758682
v -1.407782 3.023098 4.694837
v -1.539514 2.809944 4.732670
v -1.671246 2.596791 4.694837
v -0.956320 2.596791 4.462541
v -1.040658 2.809944 4.570582
v -1.169473 3.023098 4.617406
v -2.269991 3.023097 4.259821
v -2.346680 2.809944 4.146226
v -2.351406 2.596793 4.009251
v -1.909555 2.596791 4.617406
v -2.038370 2.809944 4.570582
v -2.122708 3.023098 4.462541
v -2.122708 3.023098 3.305392
v -2.038370 2.809944 3.197351
v -1.909555 2.596791 3.150527
v -2.351406 2.596793 3.758682
v -2.346680 2.809944 3.621706
v -2.269991 3.023097 3.508111
v -1.169473 3.023098 3.150527
v -1.040658 2.809944 3.197351
v -0.956320 2.596791 3.305392
v -1.671246 2.596791 3.073096
v -1.539514 2.809944 3.035263
v -1.407782 3.023098 3.073096
v -0.834198 3.236247 4.086682
v -0.955445 3.256139 4.308316
v -1.128766 3.236250 4.492117
v -1.514359 3.236250 4.617403
v -1.762612 3.256140 4.570578
v -1.990974 3.236250 4.462538
v -2.229280 3.236249 4.134536
v -2.261462 3.256138 3.883966
v -2.229280 3.236249 3.633397
v -1.990974 3.236250 3.305395
v -1.762612 3.256140 3.197355
v -1.514359 3.236250 3.150530
v -1.128766 3.236250 3.275815
v -0.955445 3.256139 3.459617
v -0.834198 3.236247 3.681251
v -1.473649 3.631447 4.086682
v -1.401637 3.531898 4.308314
v -1.341917 3.367983 4.492116
v -0.900065 3.367980 3.883966
v -1.093325 3.531896 3.883966
v -1.326365 3.631446 3.883966
v -1.711954 3.631447 4.009250
v -1.900487 3.531898 4.146225
v -2.056839 3.367983 4.259820
v -1.711954 3.631447 3.758683
v -1.900487 3.531898 3.621707
v -2.056839 3.367983 3.508112
v -1.473649 3.631447 3.681251
v -1.401637 3.531898 3.459619
v -1.341917 3.367983 3.275817
v -1.232453 3.569050 3.660874
v -0.997877 3.424075 3.660873
v -1.159966 3.424076 3.437779
v -1.656802 3.569050 3.522996
v -1.584317 3.424077 3.299901
v -1.846578 3.424077 3.385117
v -1.919063 3.569050 3.883966
v -2.108839 3.424076 3.746089
v -2.108839 3.424076 4.021844
v -1.656803 3.569050 4.244937
v -1.846578 3.424077 4.382816
v -1.584317 3.424077 4.468031
v -1.232453 3.569050 4.107059
v -1.159966 3.424076 4.330154
v -0.997877 3.424075 4.107060
v -0.808097 3.044523 3.522994
v -0.852896 2.809944 3.385114
v -0.970186 3.044524 3.299898
v -1.656804 3.044524 3.076802
v -1.801777 2.809944 3.076801
v -1.919067 3.044524 3.162018
v -2.343417 3.044523 3.746088
v -2.388218 2.809945 3.883967
v -2.343417 3.044523 4.021845
v -1.919068 3.044523 4.605915
v -1.801778 2.809944 4.691132
v -1.656804 3.044523 4.691131
v -0.970186 3.044523 4.468036
v -0.852897 2.809943 4.382820
v -0.808098 3.044521 4.244940
v -1.277250 2.809944 3.076801
v -1.159960 2.575365 3.162018
v -1.422224 2.575365 3.076802
v -2.226131 2.809944 3.385113
v -2.108840 2.575365 3.299896
v -2.270929 2.575366 3.522992
v -2.226131 2.809944 4.382820
v -2.270930 2.575366 4.244940
v -2.108840 2.575365 4.468037
v -1.277250 2.809944 4.691132
v -1.422224 2.575365 4.691130
v -1.159960 2.575365 4.605915
v -0.690810 2.809944 3.883966
v -0.735611 2.575366 4.021845
v -0.735611 2.575366 3.746088
v -1.232450 2.195812 3.385116
v -1.422226 2.050839 3.522995
v -1.494712 2.195813 3.299900
v -1.919063 2.195813 3.437780
v -1.846576 2.050839 3.660874
v -2.081152 2.195814 3.660874
v -2.081152 2.195815 4.107060
v -1.846576 2.050840 4.107060
v -1.919063 2.195813 4.330154
v -0.970189 2.195813 3.746089
v -0.970189 2.195814 4.021845
v -1.159964 2.050840 3.883967
v -1.494711 2.195812 4.468032
v -1.422224 2.050839 4.244938
v -1.232449 2.195813 4.382817
vn -0.0000 -1.0000 -0.0000
vn 0.7236 -0.4472 0.5257
vn -0.2764 -0.4472 0.8506
vn -0.8944 -0.4472 -0.0000
vn -0.2764 -0.4472 -0.8506
vn 0.7236 -0.4472 -0.5257
vn 0.2764 0.4472 0.8506
vn -0.7236 0.4472 0.5257
vn -0.7236 0.4472 -0.5257
vn 0.2764 0.4472 -0.8506
vn 0.8944 0.4472 -0.0000
vn -0.0000 1.0000 -0.0000
vn -0.2308 -0.6650 0.7103
vn -0.1625 -0.8507 0.5000
vn -0.0806 -0.9654 0.2480
vn 0.2110 -0.9654 0.1533
vn 0.4253 -0.8507 0.3090
vn 0.6042 -0.6650 0.4390
vn 0.5237 -0.5038 0.6870
vn 0.2629 -0.5257 0.8090
vn -0.0198 -0.5038 0.8636
vn 0.8152 -0.5038 -0.2857
vn 0.8506 -0.5257 -0.0000
vn 0.8152 -0.5038 0.2857
vn 0.2110 -0.9654 -0.1533
vn 0.4253 -0.8507 -0.3090
vn 0.6042 -0.6650 -0.4390
vn -0.7469 -0.6650 -0.0000
vn -0.5257 -0.8507 -0.0000
vn -0.2608 -0.9654 -0.0000
vn -0.4915 -0.5038 0.7103
vn -0.6882 -0.5257 0.5000
vn -0.8274 -0.5038 0.2480
vn -0.2308 -0.6650 -0.7103
vn -0.1625 -0.8507 -0.5000
vn -0.0806 -0.9654 -0.2480
vn -0.8274 -0.5038 -0.2480
vn -0.6882 -0.5257 -0.5000
vn -0.4915 -0.5038 -0.7103
vn -0.0198 -0.5038 -0.8636
vn 0.2629 -0.5257 -0.8090
vn 0.5237 -0.5038 -0.6870
vn 0.9578 0.2431 0.1533
vn 0.9511 -0.0000 0.3090
vn 0.8650 -0.2431 0.4390
vn 0.8650 -0.2431 -0.4390
vn 0.9511 -0.0000 -0.3090
vn 0.9578 0.2431 -0.1533
vn 0.1502 0.2431 0.9583
vn -0.0000 -0.0000 1.0000
vn -0.1502 -0.2431 0.9583
vn 0.6848 -0.2431 0.6870
vn 0.5878 -0.0000 0.8090
vn 0.4417 0.2431 0.8636
vn -0.8650 0.2431 0.4390
vn -0.9511 -0.0000 0.3090
vn -0.9578 -0.2431 0.1533
vn -0.4417 -0.2431 0.8636
vn -0.5878 -0.0000 0.8090
vn -0.6848 0.2431 0.6870
vn -0.6848 0.2431 -0.6870
vn -0.5878 -0.0000 -0.8090
vn -0.4417 -0.2431 -0.8636
vn -0.9578 -0.2431 -0.1533
vn -0.9511 -0.0000 -0.3090
vn -0.8650 0.2431 -0.4390
vn 0.4417 0.2431 -0.8636
vn 0.5878 -0.0000 -0.8090
vn 0.6848 -0.2431 -0.6870
vn -0.1502 -0.2431 -0.9583
vn -0.0000 -0.0000 -1.0000
vn 0.1502 0.2431 -0.9583
vn 0.8274 0.5038 0.2480
vn 0.6882 0.5257 0.5000
vn 0.4915 0.5038 0.7103
vn 0.0198 0.5038 0.8636
vn -0.2629 0.5257 0.8090
vn -0.5237 0.5038 0.6870
vn -0.8152 0.5038 0.2857
vn -0.8506 0.5257 -0.0000
vn -0.8152 0.5038 -0.2857
vn -0.5237 0.5038 -0.6870
vn -0.2629 0.5257 -0.8090
vn 0.0198 0.5038 -0.8636
vn 0.4915 0.5038 -0.7103
vn 0.6882 0.5257 -0.5000
vn 0.8274 0.5038 -0.2480
vn 0.0806 0.9654 0.2480
vn 0.1625 0.8507 0.5000
vn 0.2308 0.6650 0.7103
vn 0.7469 0.6650 -0.0000
vn 0.5257 0.8507 -0.0000
vn 0.2607 0.9654 -0.0000
vn -0.2110 0.9654 0.1533
vn -0.4253 0.8507 0.3090
vn -0.6042 0.6650 0.4390
vn -0.2110 0.9654 -0.1533
vn -0.4253 0.8507 -0.3090
vn -0.6042 0.6650 -0.4390
vn 0.0806 0.9654 -0.2480
vn 0.1625 0.8507 -0.5000
vn 0.2308 0.6650 -0.7103
vn 0.3682 0.8904 -0.2675
vn 0.6317 0.7275 -0.2675
vn 0.4496 0.7276 -0.5182
vn -0.1406 0.8904 -0.4329
vn -0.0592 0.7276 -0.6835
vn -0.3539 0.7276 -0.5878
vn -0.4551 0.8904 -0.0000
vn -0.6683 0.7276 -0.1549
vn -0.6683 0.7276 0.1549
vn -0.1406 0.8904 0.4329
vn -0.3539 0.7276 0.5878
vn -0.0592 0.7276 0.6835
vn 0.3682 0.8904 0.2675
vn 0.4496 0.7276 0.5182
vn 0.6317 0.7275 0.2675
vn 0.8593 0.2724 -0.4329
vn 0.8090 0.0089 -0.5878
vn 0.6772 0.2724 -0.6835
vn -0.1461 0.2724 -0.9510
vn -0.3090 0.0089 -0.9510
vn -0.4408 0.2724 -0.8553
vn -0.9496 0.2724 -0.1549
vn -1.0000 0.0089 -0.0000
vn -0.9496 0.2724 0.1549
vn -0.4408 0.2724 0.8553
vn -0.3090 0.0089 0.9510
vn -0.1461 0.2724 0.9510
vn 0.6772 0.2724 0.6835
vn 0.8090 0.0089 0.5878
vn 0.8593 0.2724 0.4329
vn 0.3090 -0.0089 -0.9510
vn 0.4408 -0.2724 -0.8553
vn 0.1461 -0.2724 -0.9510
vn -0.8090 -0.0089 -0.5878
vn -0.6772 -0.2724 -0.6835
vn -0.8593 -0.2724 -0.4329
vn -0.8090 -0.0089 0.5878
vn -0.8593 -0.2724 0.4329
vn -0.6772 -0.2724 0.6835
vn 0.3090 -0.0089 0.9510
vn 0.1461 -0.2724 0.9510
vn 0.4408 -0.2724 0.8553
vn 1.0000 -0.0089 -0.0000
vn 0.9496 -0.2724 0.1549
vn 0.9496 -0.2724 -0.1549
vn 0.3539 -0.7276 -0.5878
vn 0.1406 -0.8904 -0.4329
vn 0.0592 -0.7276 -0.6835
vn -0.4496 -0.7276 -0.5182
vn -0.3682 -0.8904 -0.2675
vn -0.6317 -0.7275 -0.2675
vn -0.6317 -0.7275 0.2675
vn -0.3682 -0.8904 0.2675
vn -0.4496 -0.7275 0.5182
vn 0.6683 -0.7275 -0.1549
vn 0.6683 -0.7275 0.1549
vn 0.4551 -0.8904 -0.0000
vn 0.0592 -0.7276 0.6835
vn 0.1406 -0.8904 0.4329
vn 0.3539 -0.7276 0.5878
vt 0.181819 0.000000
vt 0.204546 0.039365
vt 0.159092 0.039365
vt 0.272728 0.157461
vt 0.295455 0.118096
vt 0.318182 0.157461
vt 0.909091 0.000000
vt 0.931818 0.039365
vt 0.886364 0.039365
vt 0.727273 0.000000
vt 0.750000 0.039365
vt 0.704546 0.039365
vt 0.545455 0.000000
vt 0.568182 0.039365
vt 0.522728 0.039365
vt 0.295455 0.196826
vt 0.090910 0.157461
vt 0.136364 0.157461
vt 0.113637 0.196826
vt 0.818182 0.157461
vt 0.863636 0.157461
vt 0.840909 0.196826
vt 0.636364 0.157461
vt 0.681818 0.157461
vt 0.659091 0.196826
vt 0.454546 0.157461
vt 0.500000 0.157461
vt 0.477273 0.196826
vt 0.250001 0.196826
vt 0.068182 0.196826
vt 0.795455 0.196826
vt 0.613637 0.196826
vt 0.431819 0.196826
vt 0.181819 0.314921
vt 0.227273 0.314921
vt 0.204546 0.354286
vt 0.000000 0.314921
vt 0.045455 0.314921
vt 0.022727 0.354286
vt 0.727273 0.314921
vt 0.772727 0.314921
vt 0.750000 0.354286
vt 0.545455 0.314921
vt 0.590909 0.314921
vt 0.568182 0.354286
vt 0.363637 0.314921
vt 0.409091 0.314921
vt 0.386364 0.354286
vt 0.431819 0.433017
vt 0.477273 0.433017
vt 0.454546 0.472382
vt 0.409091 0.393651
vt 0.454546 0.393651
vt 0.431819 0.354286
vt 0.500000 0.393651
vt 0.477273 0.354286
vt 0.522728 0.354286
vt 0.454546 0.314921
vt 0.500000 0.314921
vt 0.613637 0.433017
vt 0.659091 0.433017
vt 0.636364 0.472382
vt 0.590909 0.393651
vt 0.636364 0.393651
vt 0.613637 0.354286
vt 0.681818 0.393651
vt 0.659091 0.354286
vt 0.704546 0.354286
vt 0.636364 0.314921
vt 0.681818 0.314921
vt 0.795455 0.433017
vt 0.840909 0.433017
vt 0.818182 0.472382
vt 0.772727 0.393651
vt 0.818182 0.393651
vt 0.795455 0.354286
vt 0.863636 0.393651
vt 0.840909 0.354286
vt 0.886364 0.354286
vt 0.818182 0.314921
vt 0.863636 0.314921
vt 0.909091 0.314921
vt 0.068182 0.433017
vt 0.113637 0.433017
vt 0.090910 0.472382
vt 0.045455 0.393651
vt 0.090910 0.393651
vt 0.068182 0.354286
vt 0.136365 0.393651
vt 0.113637 0.354286
vt 0.159092 0.354286
vt 0.090909 0.314921
vt 0.136364 0.314921
vt 0.250001 0.433017
vt 0.295455 0.433017
vt 0.272728 0.472382
vt 0.227273 0.393651
vt 0.272728 0.393651
vt 0.250001 0.354286
vt 0.318182 0.393651
vt 0.295455 0.354286
vt 0.340910 0.354286
vt 0.272728 0.314921
vt 0.318182 0.314921
vt 0.386364 0.275556
vt 0.409091 0.236191
vt 0.431819 0.275556
vt 0.454546 0.236191
vt 0.477273 0.275556
vt 0.500000 0.236191
vt 0.522728 0.275556
vt 0.568182 0.275556
vt 0.590909 0.236191
vt 0.613637 0.275556
vt 0.636364 0.236191
vt 0.659091 0.275556
vt 0.681818 0.236191
vt 0.704546 0.275556
vt 0.750000 0.275556
vt 0.772727 0.236191
vt 0.795455 0.275556
vt 0.818182 0.236191
vt 0.840909 0.275556
vt 0.863636 0.236191
vt 0.886364 0.275556
vt 0.022727 0.275556
vt 0.045455 0.236191
vt 0.068182 0.275556
vt 0.090910 0.236191
vt 0.113637 0.275556
vt 0.136364 0.236191
vt 0.159092 0.275556
vt 0.204546 0.275556
vt 0.227273 0.236191
vt 0.250001 0.275556
vt 0.272728 0.236191
vt 0.295455 0.275556
vt 0.318182 0.236191
vt 0.340910 0.275556
vt 0.545455 0.236191
vt 0.522728 0.196826
vt 0.568182 0.196826
vt 0.545455 0.157461
vt 0.590909 0.157461
vt 0.727273 0.236191
vt 0.704546 0.196826
vt 0.750000 0.196826
vt 0.727273 0.157461
vt 0.772727 0.157461
vt 0.931818 0.275556
vt 0.909091 0.236191
vt 0.886364 0.196826
vt 0.954545 0.236191
vt 0.931818 0.196826
vt 0.977273 0.196826
vt 0.909091 0.157461
vt 0.954545 0.157461
vt 1.000000 0.157461
vt 0.181819 0.236191
vt 0.159092 0.196826
vt 0.204546 0.196826
vt 0.181819 0.157461
vt 0.227274 0.157461
vt 0.363637 0.236191
vt 0.340910 0.196826
vt 0.386364 0.196826
vt 0.363637 0.157461
vt 0.409092 0.157461
vt 0.477273 0.118096
vt 0.500000 0.078731
vt 0.522728 0.118096
vt 0.545455 0.078731
vt 0.568182 0.118096
vt 0.590909 0.078731
vt 0.613637 0.118096
vt 0.659091 0.118096
vt 0.681818 0.078731
vt 0.704546 0.118096
vt 0.727273 0.078731
vt 0.750000 0.118096
vt 0.772727 0.078731
vt 0.795455 0.118096
vt 0.840909 0.118096
vt 0.863636 0.078731
vt 0.886364 0.118096
vt 0.909091 0.078731
vt 0.931818 0.118096
vt 0.954545 0.078731
vt 0.977273 0.118096
vt 0.431819 0.118096
vt 0.386364 0.118096
vt 0.340910 0.118096
vt 0.409091 0.078731
vt 0.363637 0.078730
vt 0.386364 0.039365
vt 0.318182 0.078731
vt 0.340910 0.039365
vt 0.363637 0.000000
vt 0.113637 0.118096
vt 0.136365 0.078731
vt 0.159092 0.118096
vt 0.181819 0.078731
vt 0.204546 0.118096
vt 0.227273 0.078731
vt 0.250001 0.118096
s 1
f 25/43/19 40/44/34 39/45/33
f 26/46/20 42/47/36 48/48/42
f 25/49/19 39/50/33 54/51/48
f 25/52/19 54/53/48 60/54/54
f 25/55/19 60/56/54 49/57/43
f 26/46/20 48/48/42 69/58/63
f 27/59/21 45/60/39 75/61/69
f 28/62/22 57/63/51 81/64/75
f 29/65/23 63/66/57 87/67/81
f 30/68/24 66/69/60 93/70/87
f 26/46/20 69/58/63 76/71/70
f 27/59/21 75/61/69 82/72/76
f 28/62/22 81/64/75 88/73/82
f 29/65/23 87/67/81 94/74/88
f 30/68/24 93/70/87 70/75/64
f 31/76/25 99/77/93 114/78/108
f 32/79/26 102/80/96 120/81/114
f 33/82/27 105/83/99 123/84/117
f 34/85/28 108/86/102 126/87/120
f 35/88/29 111/89/105 115/90/109
f 117/91/111 124/92/118 36/93/30
f 116/94/110 127/95/121 117/91/111
f 115/90/109 128/96/122 116/94/110
f 117/91/111 127/95/121 124/92/118
f 127/95/121 125/97/119 124/92/118
f 116/94/110 128/96/122 127/95/121
f 128/96/122 129/98/123 127/95/121
f 127/95/121 129/98/123 125/97/119
f 129/98/123 126/99/120 125/97/119
f 115/90/109 111/89/105 128/96/122
f 111/89/105 110/100/104 128/96/122
f 128/96/122 110/100/104 129/98/123
f 110/100/104 109/101/103 129/98/123
f 129/98/123 109/101/103 126/99/120
f 109/101/103 34/85/28 126/99/120
f 124/102/118 121/103/115 36/104/30
f 125/105/119 130/106/124 124/102/118
f 126/87/120 131/107/125 125/105/119
f 124/102/118 130/106/124 121/103/115
f 130/106/124 122/108/116 121/103/115
f 125/105/119 131/107/125 130/106/124
f 131/107/125 132/109/126 130/106/124
f 130/106/124 132/109/126 122/108/116
f 132/109/126 123/110/117 122/108/116
f 126/87/120 108/86/102 131/107/125
f 108/86/102 107/111/101 131/107/125
f 131/107/125 107/111/101 132/109/126
f 107/111/101 106/112/100 132/109/126
f 132/109/126 106/112/100 123/110/117
f 106/112/100 33/82/27 123/110/117
f 121/113/115 118/114/112 36/115/30
f 122/116/116 133/117/127 121/113/115
f 123/84/117 134/118/128 122/116/116
f 121/113/115 133/117/127 118/114/112
f 133/117/127 119/119/113 118/114/112
f 122/116/116 134/118/128 133/117/127
f 134/118/128 135/120/129 133/117/127
f 133/117/127 135/120/129 119/119/113
f 135/120/129 120/121/114 119/119/113
f 123/84/117 105/83/99 134/118/128
f 105/83/99 104/122/98 134/118/128
f 134/118/128 104/122/98 135/120/129
f 104/122/98 103/123/97 135/120/129
f 135/120/129 103/123/97 120/121/114
f 103/123/97 32/124/26 120/121/114
f 118/125/112 112/126/106 36/127/30
f 119/128/113 136/129/130 118/125/112
f 120/81/114 137/130/131 119/128/113
f 118/125/112 136/129/130 112/126/106
f 136/129/130 113/131/107 112/126/106
f 119/128/113 137/130/131 136/129/130
f 137/130/131 138/132/132 136/129/130
f 136/129/130 138/132/132 113/131/107
f 138/132/132 114/133/108 113/131/107
f 120/81/114 102/80/96 137/130/131
f 102/80/96 101/134/95 137/130/131
f 137/130/131 101/134/95 138/132/132
f 101/134/95 100/135/94 138/132/132
f 138/132/132 100/135/94 114/133/108
f 100/135/94 31/76/25 114/133/108
f 112/136/106 117/137/111 36/138/30
f 113/139/107 139/140/133 112/136/106
f 114/78/108 140/141/134 113/139/107
f 112/136/106 139/140/133 117/137/111
f 139/140/133 116/142/110 117/137/111
f 113/139/107 140/141/134 139/140/133
f 140/141/134 141/143/135 139/140/133
f 139/140/133 141/143/135 116/142/110
f 141/143/135 115/144/109 116/142/110
f 114/78/108 99/77/93 140/141/134
f 99/77/93 98/145/92 140/141/134
f 140/141/134 98/145/92 141/143/135
f 98/145/92 97/146/91 141/143/135
f 141/143/135 97/146/91 115/144/109
f 97/146/91 35/88/29 115/144/109
f 72/147/66 111/89/105 35/88/29
f 71/148/65 142/149/136 72/147/66
f 70/75/64 143/150/137 71/148/65
f 72/147/66 142/149/136 111/89/105
f 142/149/136 110/100/104 111/89/105
f 71/148/65 143/150/137 142/149/136
f 143/150/137 144/151/138 142/149/136
f 142/149/136 144/151/138 110/100/104
f 144/151/138 109/101/103 110/100/104
f 70/75/64 93/70/87 143/150/137
f 93/70/87 92/152/86 143/150/137
f 143/150/137 92/152/86 144/151/138
f 92/152/86 91/153/85 144/151/138
f 144/151/138 91/153/85 109/101/103
f 91/153/85 34/85/28 109/101/103
f 96/154/90 108/86/102 34/85/28
f 95/155/89 145/156/139 96/154/90
f 94/74/88 146/157/140 95/155/89
f 96/154/90 145/156/139 108/86/102
f 145/156/139 107/111/101 108/86/102
f 95/155/89 146/157/140 145/156/139
f 146/157/140 147/158/141 145/156/139
f 145/156/139 147/158/141 107/111/101
f 147/158/141 106/112/100 107/111/101
f 94/74/88 87/67/81 146/157/140
f 87/67/81 86/159/80 146/157/140
f 146/157/140 86/159/80 147/158/141
f 86/159/80 85/160/79 147/158/141
f 147/158/141 85/160/79 106/112/100
f 85/160/79 33/82/27 106/112/100
f 90/161/84 105/83/99 33/82/27
f 89/162/83 148/163/142 90/161/84
f 88/73/82 149/164/143 89/162/83
f 90/161/84 148/163/142 105/83/99
f 148/163/142 104/122/98 105/83/99
f 89/162/83 149/164/143 148/163/142
f 149/164/143 150/165/144 148/163/142
f 148/163/142 150/165/144 104/122/98
f 150/165/144 103/123/97 104/122/98
f 88/73/82 81/64/75 149/164/143
f 81/64/75 80/166/74 149/164/143
f 149/164/143 80/166/74 150/165/144
f 80/166/74 79/167/73 150/165/144
f 150/165/144 79/167/73 103/123/97
f 79/167/73 32/124/26 103/123/97
f 84/168/78 102/80/96 32/79/26
f 83/169/77 151/170/145 84/168/78
f 82/72/76 152/171/146 83/169/77
f 84/168/78 151/170/145 102/80/96
f 151/170/145 101/134/95 102/80/96
f 83/169/77 152/171/146 151/170/145
f 152/171/146 153/172/147 151/170/145
f 151/170/145 153/172/147 101/134/95
f 153/172/147 100/135/94 101/134/95
f 82/72/76 75/61/69 152/171/146
f 75/61/69 74/173/68 152/171/146
f 152/171/146 74/173/68 153/172/147
f 74/173/68 73/174/67 153/172/147
f 153/172/147 73/174/67 100/135/94
f 73/174/67 31/76/25 100/135/94
f 78/175/72 99/77/93 31/76/25
f 77/176/71 154/177/148 78/175/72
f 76/71/70 155/178/149 77/176/71
f 78/175/72 154/177/148 99/77/93
f 154/177/148 98/145/92 99/77/93
f 77/176/71 155/178/149 154/177/148
f 155/178/149 156/179/150 154/177/148
f 154/177/148 156/179/150 98/145/92
f 156/179/150 97/146/91 98/145/92
f 76/71/70 69/58/63 155/178/149
f 69/58/63 68/180/62 155/178/149
f 155/178/149 68/180/62 156/179/150
f 68/180/62 67/181/61 156/179/150
f 156/179/150 67/181/61 97/146/91
f 67/181/61 35/88/29 97/146/91
f 91/153/85 96/154/90 34/85/28
f 92/152/86 157/182/151 91/153/85
f 93/70/87 158/183/152 92/152/86
f 91/153/85 157/182/151 96/154/90
f 157/182/151 95/155/89 96/154/90
f 92/152/86 158/183/152 157/182/151
f 158/183/152 159/184/153 157/182/151
f 157/182/151 159/184/153 95/155/89
f 159/184/153 94/74/88 95/155/89
f 93/70/87 66/69/60 158/183/152
f 66/69/60 65/185/59 158/183/152
f 158/183/152 65/185/59 159/184/153
f 65/185/59 64/186/58 159/184/153
f 159/184/153 64/186/58 94/74/88
f 64/186/58 29/65/23 94/74/88
f 85/160/79 90/161/84 33/82/27
f 86/159/80 160/187/154 85/160/79
f 87/67/81 161/188/155 86/159/80
f 85/160/79 160/187/154 90/161/84
f 160/187/154 89/162/83 90/161/84
f 86/159/80 161/188/155 160/187/154
f 161/188/155 162/189/156 160/187/154
f 160/187/154 162/189/156 89/162/83
f 162/189/156 88/73/82 89/162/83
f 87/67/81 63/66/57 161/188/155
f 63/66/57 62/190/56 161/188/155
f 161/188/155 62/190/56 162/189/156
f 62/190/56 61/191/55 162/189/156
f 162/189/156 61/191/55 88/73/82
f 61/191/55 28/62/22 88/73/82
f 79/167/73 84/192/78 32/124/26
f 80/166/74 163/193/157 79/167/73
f 81/64/75 164/194/158 80/166/74
f 79/167/73 163/193/157 84/192/78
f 163/193/157 83/195/77 84/192/78
f 80/166/74 164/194/158 163/193/157
f 164/194/158 165/196/159 163/193/157
f 163/193/157 165/196/159 83/195/77
f 165/196/159 82/197/76 83/195/77
f 81/64/75 57/63/51 164/194/158
f 57/63/51 56/198/50 164/194/158
f 164/194/158 56/198/50 165/196/159
f 56/198/50 55/199/49 165/196/159
f 165/196/159 55/199/49 82/197/76
f 55/199/49 27/200/21 82/197/76
f 73/174/67 78/175/72 31/76/25
f 74/173/68 166/201/160 73/174/67
f 75/61/69 167/202/161 74/173/68
f 73/174/67 166/201/160 78/175/72
f 166/201/160 77/176/71 78/175/72
f 74/173/68 167/202/161 166/201/160
f 167/202/161 168/203/162 166/201/160
f 166/201/160 168/203/162 77/176/71
f 168/203/162 76/71/70 77/176/71
f 75/61/69 45/60/39 167/202/161
f 45/60/39 44/204/38 167/202/161
f 167/202/161 44/204/38 168/203/162
f 44/204/38 43/205/37 168/203/162
f 168/203/162 43/205/37 76/71/70
f 43/205/37 26/46/20 76/71/70
f 67/181/61 72/147/66 35/88/29
f 68/180/62 169/206/163 67/181/61
f 69/58/63 170/207/164 68/180/62
f 67/181/61 169/206/163 72/147/66
f 169/206/163 71/148/65 72/147/66
f 68/180/62 170/207/164 169/206/163
f 170/207/164 171/208/165 169/206/163
f 169/206/163 171/208/165 71/148/65
f 171/208/165 70/75/64 71/148/65
f 69/58/63 48/48/42 170/207/164
f 48/48/42 47/209/41 170/207/164
f 170/207/164 47/209/41 171/208/165
f 47/209/41 46/210/40 171/208/165
f 171/208/165 46/210/40 70/75/64
f 46/210/40 30/68/24 70/75/64
f 51/211/45 66/69/60 30/68/24
f 50/212/44 172/213/166 51/211/45
f 49/57/43 173/214/167 50/212/44
f 51/211/45 172/213/166 66/69/60
f 172/213/166 65/185/59 66/69/60
f 50/212/44 173/214/167 172/213/166
f 173/214/167 174/215/168 172/213/166
f 172/213/166 174/215/168 65/185/59
f 174/215/168 64/186/58 65/185/59
f 49/57/43 60/56/54 173/214/167
f 60/56/54 59/216/53 173/214/167
f 173/214/167 59/216/53 174/215/168
f 59/216/53 58/217/52 174/215/168
f 174/215/168 58/217/52 64/186/58
f 58/217/52 29/65/23 64/186/58
f 58/218/52 63/66/57 29/65/23
f 59/219/53 175/220/169 58/218/52
f 60/54/54 176/221/170 59/219/53
f 58/218/52 175/220/169 63/66/57
f 175/220/169 62/190/56 63/66/57
f 59/219/53 176/221/170 175/220/169
f 176/221/170 177/222/171 175/220/169
f 175/220/169 177/222/171 62/190/56
f 177/222/171 61/191/55 62/190/56
f 60/54/54 54/53/48 176/221/170
f 54/53/48 53/223/47 176/221/170
f 176/221/170 53/223/47 177/222/171
f 53/223/47 52/224/46 177/222/171
f 177/222/171 52/224/46 61/191/55
f 52/224/46 28/62/22 61/191/55
f 52/225/46 57/63/51 28/62/22
f 53/226/47 178/227/172 52/225/46
f 54/51/48 179/228/173 53/226/47
f 52/225/46 178/227/172 57/63/51
f 178/227/172 56/198/50 57/63/51
f 53/226/47 179/228/173 178/227/172
f 179/228/173 180/229/174 178/227/172
f 178/227/172 180/229/174 56/198/50
f 180/229/174 55/199/49 56/198/50
f 54/51/48 39/50/33 179/228/173
f 39/50/33 38/230/32 179/228/173
f 179/228/173 38/230/32 180/229/174
f 38/230/32 37/231/31 180/229/174
f 180/229/174 37/231/31 55/199/49
f 37/231/31 27/200/21 55/199/49
f 46/210/40 51/232/45 30/68/24
f 47/209/41 181/233/175 46/210/40
f 48/48/42 182/234/176 47/209/41
f 46/210/40 181/233/175 51/232/45
f 181/233/175 50/235/44 51/232/45
f 47/209/41 182/234/176 181/233/175
f 182/234/176 183/236/177 181/233/175
f 181/233/175 183/236/177 50/235/44
f 183/236/177 49/237/43 50/235/44
f 48/48/42 42/47/36 182/234/176
f 42/47/36 41/238/35 182/234/176
f 182/234/176 41/238/35 183/236/177
f 41/238/35 40/239/34 183/236/177
f 183/236/177 40/239/34 49/237/43
f 40/239/34 25/240/19 49/237/43
f 37/241/31 45/60/39 27/59/21
f 38/242/32 184/243/178 37/241/31
f 39/45/33 185/244/179 38/242/32
f 37/241/31 184/243/178 45/60/39
f 184/243/178 44/204/38 45/60/39
f 38/242/32 185/244/179 184/243/178
f 185/244/179 186/245/180 184/243/178
f 184/243/178 186/245/180 44/204/38
f 186/245/180 43/205/37 44/204/38
f 39/45/33 40/44/34 185/244/179
f 40/44/34 41/246/35 185/244/179
f 185/244/179 41/246/35 186/245/180
f 41/246/35 42/247/36 186/245/180
f 186/245/180 42/247/36 43/205/37
f 42/247/36 26/46/20 43/205/37
